<?xml version="1.0" encoding="utf-8"?>
<!-- Generator: Adobe Illustrator 23.0.6, SVG Export Plug-In . SVG Version: 6.00 Build 0)  -->
<svg version="1.1" id="Ebene_1" xmlns="http://www.w3.org/2000/svg" xmlns:xlink="http://www.w3.org/1999/xlink" x="0px" y="0px"
	 viewBox="0 0 16 16" style="enable-background:new 0 0 16 16;" xml:space="preserve">
<style type="text/css">
	.st0{fill:#FFFFFF;}
	.st1{fill:#999999;}
	.st2{opacity:0.8;}
	.st3{fill:#279989;}
	.st4{fill:#333F48;}
</style>
<path class="st0" d="M1,1h14v14H1V1z"/>
<path class="st1" d="M1,1v14h14V1H1z M2,2h12v12H2V2z"/>
<g class="st2">
	<rect x="3" y="3" class="st3" width="10" height="10"/>
	<rect x="4.1" y="4.1" class="st4" width="7.8" height="7.8"/>
	<g>
		<path class="st0" d="M7.8,7c0,0.7-0.4,1.2-1.7,2.5h1.8l-0.1,0.7H5V9.5C6.5,8,6.8,7.6,6.8,7.1c0-0.4-0.2-0.6-0.6-0.6
			c-0.3,0-0.5,0.1-0.8,0.5L4.9,6.5C5.2,6,5.7,5.8,6.3,5.8C7.2,5.8,7.8,6.3,7.8,7z"/>
		<path class="st0" d="M11,6.8c0,0.5-0.3,0.9-0.8,1c0.5,0.1,1,0.4,1,1.1c0,0.7-0.6,1.3-1.6,1.3c-0.6,0-1.1-0.2-1.4-0.6l0.5-0.5
			c0.3,0.3,0.5,0.4,0.9,0.4c0.4,0,0.7-0.2,0.7-0.7c0-0.5-0.3-0.7-0.7-0.7H9.1l0.1-0.6h0.2c0.4,0,0.7-0.2,0.7-0.6
			c0-0.3-0.2-0.5-0.6-0.5c-0.3,0-0.6,0.1-0.9,0.4L8.2,6.3C8.6,5.9,9,5.8,9.6,5.8C10.5,5.8,11,6.2,11,6.8z"/>
	</g>
</g>
</svg>
