<?xml version="1.0" encoding="utf-8"?>
<!-- Generator: Adobe Illustrator 23.0.6, SVG Export Plug-In . SVG Version: 6.00 Build 0)  -->
<svg version="1.1" id="Ebene_1" xmlns="http://www.w3.org/2000/svg" xmlns:xlink="http://www.w3.org/1999/xlink" x="0px" y="0px"
	 viewBox="0 0 64 64" style="enable-background:new 0 0 64 64;" xml:space="preserve">
<style type="text/css">
	.st0{fill:#279989;}
	.st1{fill:#333F48;}
	.st2{fill:#FFFFFF;}
</style>
<rect class="st0" width="64" height="64"/>
<rect x="7" y="7" class="st1" width="50" height="50"/>
<g>
	<path class="st2" d="M30.4,25.4c0,4.5-2.4,7.8-11,15.8H31l-0.7,4.5H12.8v-4.2c9.4-9.4,11.6-11.9,11.6-15.6c0-2.4-1.5-3.8-3.8-3.8
		c-2.1,0-3.5,0.9-5.2,2.9L12,22.2c2.2-2.9,5.2-4.6,9.2-4.6C27.1,17.6,30.4,21.1,30.4,25.4z"/>
	<path class="st2" d="M51.1,24.6c0,3.4-2.1,5.6-5.4,6.5c3.4,0.4,6.3,2.5,6.3,6.8c0,4.7-3.7,8.5-10.3,8.5c-4,0-7-1.5-9.2-4.1l3.2-3.1
		c1.7,1.9,3.5,2.7,5.6,2.7c2.8,0,4.6-1.6,4.6-4.3c0-3.1-1.7-4.2-4.7-4.2H39l0.7-4.1h1.5c2.5,0,4.2-1.4,4.2-3.9
		c0-2.1-1.5-3.4-3.9-3.4c-2.1,0-3.8,0.8-5.4,2.4l-2.9-3.2c2.5-2.4,5.4-3.6,8.9-3.6C48,17.6,51.1,20.8,51.1,24.6z"/>
</g>
</svg>
